<svg width="82" height="52" viewBox="0 0 82 52" fill="none" xmlns="http://www.w3.org/2000/svg">
<path d="M40.0167 0.000290181C35.1536 -0.0261587 30.4543 1.75628 26.832 5.00123C23.2097 8.24618 20.9232 12.7219 20.4167 17.5586C21.5463 15.5879 23.1421 13.9245 25.0643 12.7142C26.9865 11.504 29.1763 10.7838 31.4417 10.617C38.3833 10.617 43.6917 18.7836 46.9583 21.2336C49.9924 23.7161 53.6044 25.3921 57.4591 26.1059C61.3139 26.8198 65.2865 26.5484 69.0083 25.317C77.175 22.4586 80.85 13.067 81.6667 8.98362C77.5833 14.7003 71.8667 17.967 64.1083 13.8836C59.2083 11.4336 55.5333 0.000291728 39.6083 0.408625L40.0167 0.000290181ZM19.6 25.7253C14.7996 25.6877 10.1524 27.413 6.53966 30.5742C2.92691 33.7353 0.599915 38.1124 0 42.8753C1.1296 40.9046 2.72548 39.2412 4.64768 38.0309C6.56987 36.8206 8.75966 36.1005 11.025 35.9336C17.9667 35.9336 23.275 44.1003 26.5417 46.5503C29.6133 48.9641 33.2431 50.566 37.0966 51.2082C40.9501 51.8505 44.9032 51.5125 48.5917 50.2253C56.7583 47.367 60.8417 38.3836 61.25 33.892C57.1667 39.6086 51.45 43.2836 44.1 39.2003C38.7917 36.342 35.1167 25.317 19.6 25.7253Z" fill="#A1A1AA"/>
</svg>
